<svg width="16" height="21" viewBox="0 0 16 21" fill="none" xmlns="http://www.w3.org/2000/svg">
<path d="M0.61482 11.3562L14.1565 20.7313C14.3128 20.8394 14.4956 20.9027 14.6853 20.9144C14.875 20.926 15.0643 20.8855 15.2326 20.7974C15.4009 20.7092 15.5419 20.5766 15.6403 20.414C15.7387 20.2514 15.7908 20.065 15.7909 19.875V1.125C15.791 0.934871 15.7391 0.748334 15.6407 0.585605C15.5424 0.422875 15.4014 0.290161 15.2331 0.201844C15.0647 0.113527 14.8754 0.0729758 14.6856 0.0845858C14.4958 0.0961959 14.3128 0.159524 14.1565 0.267707L0.61482 9.64271C0.47686 9.73899 0.364191 9.86716 0.286393 10.0163C0.208595 10.1655 0.167969 10.3312 0.167969 10.4995C0.167969 10.6677 0.208595 10.8335 0.286393 10.9826C0.364191 11.1318 0.47686 11.26 0.61482 11.3562Z" fill="#F54748"/>
</svg>
