<svg width="35" height="35" viewBox="0 0 35 35" fill="none" xmlns="http://www.w3.org/2000/svg">
<rect width="35" height="35" rx="2" fill="#F54748"/>
<path d="M18.4577 9.35419C18.4577 8.97294 18.3062 8.6073 18.0366 8.33772C17.7671 8.06814 17.4014 7.91669 17.0202 7.91669C16.6389 7.91669 16.2733 8.06814 16.0037 8.33772C15.7341 8.6073 15.5827 8.97294 15.5827 9.35419V15.5834H9.35352C8.97227 15.5834 8.60663 15.7348 8.33705 16.0044C8.06747 16.274 7.91602 16.6396 7.91602 17.0209C7.91602 17.4021 8.06747 17.7677 8.33705 18.0373C8.60663 18.3069 8.97227 18.4584 9.35352 18.4584H15.5827V24.6875C15.5827 25.0688 15.7341 25.4344 16.0037 25.704C16.2733 25.9736 16.6389 26.125 17.0202 26.125C17.4014 26.125 17.7671 25.9736 18.0366 25.704C18.3062 25.4344 18.4577 25.0688 18.4577 24.6875V18.4584H24.6868C25.0681 18.4584 25.4337 18.3069 25.7033 18.0373C25.9729 17.7677 26.1243 17.4021 26.1243 17.0209C26.1243 16.6396 25.9729 16.274 25.7033 16.0044C25.4337 15.7348 25.0681 15.5834 24.6868 15.5834H18.4577V9.35419Z" fill="white"/>
</svg>
