<svg width="73" height="64" viewBox="0 0 73 64" fill="none" xmlns="http://www.w3.org/2000/svg">
<path d="M72.3469 42.0077L63.3287 30.6225C63.1035 30.3973 62.7651 30.1715 62.4267 30.1715H50.591V23.4078C50.591 22.1679 49.5764 21.1533 48.3365 21.1533H35.0349C32.4421 26.7899 26.806 30.6224 20.2678 30.6224C13.7298 30.6224 8.09372 26.7898 5.50075 21.1533H2.68219C1.44236 21.1533 0.427734 22.1679 0.427734 23.4078V53.9569V54.0696V57.3385C0.427734 58.5783 1.44232 59.593 2.68219 59.593H6.62738C6.51476 59.0294 6.40215 58.3531 6.40215 57.6764C6.40215 53.0544 10.2348 49.2217 14.8568 49.2217C19.4787 49.2217 23.3114 53.0544 23.3114 57.6764C23.3114 58.3526 23.1988 58.9162 23.0862 59.593L52.2829 59.594C52.1702 59.0304 52.0576 58.3542 52.0576 57.6774C52.0576 53.0554 55.8903 49.2228 60.5123 49.2228C65.1342 49.2228 68.9669 53.0554 68.9669 57.6774C68.9669 58.3536 68.8543 58.9172 68.7416 59.594H70.3193C71.5592 59.594 72.5738 58.5794 72.5738 57.3395V42.6854C72.5738 42.4597 72.4612 42.2344 72.348 42.0087L72.3469 42.0077ZM10.9111 48.6588C10.9111 49.335 10.4601 49.786 9.78389 49.786C9.10766 49.786 8.65668 49.335 8.65668 48.6588V34.6809C8.65668 34.1173 9.10766 33.5537 9.78389 33.5537C10.4601 33.5537 10.9111 34.1173 10.9111 34.6809V48.6588ZM21.3949 48.6588C21.3949 49.335 20.8313 49.786 20.2676 49.786C19.5914 49.786 19.1404 49.335 19.1404 48.6588L19.1399 34.6809C19.1399 34.1173 19.5909 33.5537 20.2671 33.5537C20.8307 33.5537 21.3943 34.1173 21.3943 34.6809L21.3949 48.6588ZM31.8781 48.6588C31.8781 49.335 31.3145 49.786 30.7509 49.786C30.0747 49.786 29.6237 49.335 29.6237 48.6588V34.6809C29.6237 34.1173 30.0746 33.5537 30.7509 33.5537C31.3145 33.5537 31.8781 34.1173 31.8781 34.6809V48.6588ZM42.4745 48.6588C42.4745 49.335 41.9109 49.786 41.3473 49.786C40.7837 49.786 40.2201 49.335 40.2201 48.6588V34.6809C40.2201 34.1173 40.7837 33.5537 41.3473 33.5537C41.9109 33.5537 42.4745 34.1173 42.4745 34.6809V48.6588ZM66.9362 45.7277H53.9728C53.4092 45.7277 52.8455 45.1641 52.8455 44.6005V35.8075C52.8455 35.1313 53.4092 34.6803 53.9728 34.6803H60.2856C60.624 34.6803 60.9618 34.7929 61.1876 35.1312L67.8387 43.5859C68.2891 44.1495 68.1765 45.7277 66.9362 45.7277L66.9362 45.7277Z" fill="#F54748"/>
<path d="M14.8564 51.5894C11.4748 51.5894 8.65625 54.4074 8.65625 57.7895C8.65625 61.1711 11.4743 63.9897 14.8564 63.9897C18.238 63.9897 21.0566 61.1717 21.0566 57.7895C21.0566 54.4079 18.2386 51.5894 14.8564 51.5894Z" fill="#F54748"/>
<path d="M60.5107 51.5894C57.1291 51.5894 54.3105 54.4074 54.3105 57.7895C54.3105 61.1711 57.1285 63.9897 60.5107 63.9897C63.8923 63.9897 66.7109 61.1717 66.7109 57.7895C66.7109 54.4079 63.8928 51.5894 60.5107 51.5894Z" fill="#F54748"/>
<path d="M20.2669 28.4801C27.9321 28.4801 34.2448 22.1673 34.2448 14.5022C34.2453 6.83648 27.9325 0.411377 20.2669 0.411377C12.6017 0.411377 6.28901 6.72422 6.28901 14.3893C6.28901 22.055 12.4892 28.4801 20.2669 28.4801ZM11.8128 13.4872C12.3764 13.1488 13.0526 13.2619 13.391 13.7124L15.6455 16.8688L27.369 9.42883C27.9327 9.09046 28.6089 9.20359 28.9473 9.7672C29.2856 10.3308 29.1725 11.007 28.6089 11.3454L15.8707 19.349C15.6454 19.4616 15.5323 19.5742 15.3071 19.5742C14.9687 19.5742 14.6309 19.4616 14.4051 19.1232L11.5871 15.0649C11.2487 14.6144 11.3618 13.825 11.8128 13.4872Z" fill="#F54748"/>
</svg>
