<svg width="71" height="74" viewBox="0 0 71 74" fill="none" xmlns="http://www.w3.org/2000/svg">
<path d="M68.9809 0.563721H45.9846C45.3084 0.563721 44.8574 1.0147 44.8574 1.69093V16.6839C44.8574 17.3601 45.3084 17.8111 45.9846 17.8111H49.1411L50.1556 20.9675C50.3809 21.6437 51.2829 21.9821 51.959 21.4185L56.1301 17.8111H68.8683C69.4319 17.8111 69.9955 17.3602 69.9955 16.6839V1.691C70.1081 1.01478 69.5445 0.563787 68.9809 0.563787L68.9809 0.563721ZM64.0211 13.1893H51.508C50.8318 13.1893 50.3808 12.7383 50.3808 12.0621C50.3808 11.3858 50.8318 10.9348 51.508 10.9348H64.1336C64.8098 10.9348 65.2608 11.3858 65.2608 12.0621C65.1482 12.6257 64.6972 13.1893 64.021 13.1893H64.0211ZM64.0211 7.44014H51.508C50.8318 7.44014 50.3808 6.98916 50.3808 6.31293C50.3808 5.6367 50.8318 5.18571 51.508 5.18571H64.1336C64.8098 5.18571 65.2608 5.6367 65.2608 6.31293C65.2608 6.98916 64.6972 7.44014 64.021 7.44014H64.0211Z" fill="#F44748"/>
<path d="M23.3262 55.2369L29.188 61.0987C29.6389 59.9715 30.541 59.1821 31.2171 58.6185L24.7917 53.6587C23.8897 53.7713 23.4387 54.6733 23.3262 55.2369Z" fill="#F44748"/>
<path d="M28.2855 63.466L21.5217 56.8149L9.00922 59.8592C7.31835 60.3102 6.07812 61.8884 6.07812 63.6919V73.9499H32.1181V60.8739C31.6671 61.3248 31.3293 61.8884 31.1035 62.5647C30.8778 63.9172 29.1869 64.3681 28.285 63.4662L28.2855 63.466Z" fill="#F44748"/>
<path d="M40.3471 48.9233C36.9655 50.6142 35.9509 51.9671 33.3582 51.9671C30.7654 51.9671 29.6382 50.6141 26.3692 48.9233V51.7414L33.3582 57.1522L40.3471 51.7414V48.9233Z" fill="#F44748"/>
<path d="M35.3867 58.5051C36.1756 59.0687 36.9649 59.8581 37.4158 60.9853L43.2776 55.1235C43.0524 54.5599 42.6014 53.6579 41.8121 53.4326L35.3867 58.5051Z" fill="#F44748"/>
<path d="M26.9341 46.5573L31.443 49.1501C32.5703 49.8263 34.0359 49.8263 35.163 49.1501L39.672 46.5573C48.465 41.4843 45.9848 32.0161 46.3231 29.986C44.1813 30.0986 40.1229 29.7608 37.9811 26.8296C33.4722 30.6623 27.2721 32.5787 20.3961 31.4516V35.1716C20.2835 39.793 22.8763 44.1892 26.9347 46.5567L26.9341 46.5573Z" fill="#F44748"/>
<path d="M37.3032 24.123C37.5284 23.7846 37.9794 23.672 38.4304 23.7846C38.7688 23.8972 39.2192 24.123 39.3324 24.4608C40.5722 27.5046 44.5179 27.7298 46.3213 27.6173C45.983 20.8535 40.2344 15.4426 33.3579 15.4426C26.1431 15.4426 20.3945 21.3044 20.3945 28.406V28.9696C31.1035 30.9993 37.1903 24.123 37.3033 24.123L37.3032 24.123Z" fill="#F44748"/>
<path d="M57.4823 59.7459L45.0825 56.7021L38.3187 63.3532C37.4168 64.2552 35.7259 63.9168 35.3876 62.5644C35.275 61.8882 34.824 61.3246 34.373 60.8735V73.8369H60.4131V63.5789C60.5262 61.775 59.2864 60.3094 57.4824 59.7457L57.4823 59.7459Z" fill="#F44748"/>
<path d="M12.6172 44.979C14.5338 45.881 17.0134 44.3028 18.5916 42.9499C19.1552 42.4989 19.2678 41.7101 19.0426 41.1465L17.0135 36.2993C16.6751 35.5105 15.7737 35.0595 14.8717 35.3974C14.5333 35.51 14.3081 35.51 14.3081 35.51C13.0683 35.059 11.377 32.9171 10.3629 30.3244C9.23567 27.7316 8.89734 25.1389 9.46091 23.7864C9.46091 23.7864 9.57352 23.6738 10.0245 23.448C10.8134 23.1096 11.2643 22.2082 10.9265 21.3062L8.89737 16.4591C8.67213 15.7829 7.99538 15.3319 7.31915 15.4445C5.51575 15.5571 2.47199 16.1207 1.57003 18.2625C-0.00818508 22.0952 1.45741 28.4079 3.48662 33.1425C5.40269 37.7645 8.8975 43.4011 12.6175 44.9793L12.6172 44.979Z" fill="#F44748"/>
</svg>
