<svg width="73" height="71" viewBox="0 0 73 71" fill="none" xmlns="http://www.w3.org/2000/svg">
<path d="M7.18973 19.5308L18.9133 2.62209L15.5317 0.255104C15.0807 -0.0832695 14.404 0.0293534 13.9535 0.59296L3.46973 15.473C3.13136 16.0366 3.24398 16.7128 3.80759 17.1638L7.18973 19.5308Z" fill="#F54748"/>
<path d="M30.0745 30.9166C29.6235 31.1418 29.3983 31.5928 29.6235 32.1564C29.8488 32.6074 30.4124 32.8326 30.8634 32.6074L36.0489 30.2404C36.2741 30.1278 36.4999 29.902 36.4999 29.6768L35.3727 28.8879L34.2455 29L30.0745 30.9166Z" fill="#F54748"/>
<path d="M23.3118 27.9857C23.537 28.211 23.8754 28.211 24.2138 28.211C41.4613 25.5056 38.8679 25.844 38.9809 25.844C40.3339 25.5056 40.8974 24.8294 40.8974 23.7022C40.8974 22.575 39.8829 21.7856 38.9809 21.6731L27.2573 20.6585C26.5811 20.6585 26.1301 20.0949 26.2427 19.4187C26.3553 18.7424 26.8063 18.2915 27.4825 18.4041L28.0461 18.5167L36.3881 6.56779L35.5992 5.10224C35.374 4.65126 34.923 4.42603 34.472 4.42603L19.9295 5.32801L10.3477 18.9671L23.3118 27.9857Z" fill="#F54748"/>
<path d="M39.2055 28.2105L38.6419 28.3231L56.6786 40.9487C57.2422 41.287 57.9184 41.1739 58.2568 40.7234L64.6821 31.5925L35.8242 11.3013L30.6387 18.7413L39.2059 19.5301C41.3476 19.7553 43.0385 21.5592 43.151 23.7012C43.2642 26.1813 41.686 27.6469 39.2059 28.2105L39.2055 28.2105ZM53.0704 31.7048C53.4088 31.1412 54.1977 31.0285 54.6487 31.4795L57.2415 33.2829C57.8051 33.6213 57.9177 34.4101 57.5799 34.8611C57.2415 35.4248 56.4527 35.5374 56.0017 35.1995L53.4088 33.2829C52.8452 32.9451 52.7326 32.1557 53.0704 31.7047V31.7048ZM46.194 26.8576C46.5324 26.294 47.3212 26.1814 47.7722 26.6324L50.3651 28.4358C50.9287 28.7741 51.0413 29.563 50.7035 30.014C50.3651 30.5776 49.6889 30.6902 49.1252 30.3524L46.5324 28.4358C45.9688 28.0979 45.8562 27.4212 46.194 26.8575V26.8576Z" fill="#F54748"/>
<path d="M67.3866 27.534L38.5287 7.35571L37.1757 9.38484L66.0336 29.5632C66.0336 29.4506 67.4986 27.4214 67.3861 27.5344L67.3866 27.534Z" fill="#F54748"/>
<path d="M69.1906 24.942C69.5289 24.3784 69.4158 23.7021 68.8522 23.3638L41.9101 4.5379C41.3465 4.19953 40.6703 4.31267 40.3319 4.87627L39.8809 5.55249L68.7388 25.7308L69.1906 24.942Z" fill="#F54748"/>
<path d="M72.1216 48.6147C70.9944 46.5856 68.6268 45.6836 66.3725 46.3602L53.747 50.1929C52.5071 52.6731 50.1396 55.2659 45.8559 55.942C41.5723 56.844 36.3868 58.1965 35.5979 58.8731C34.6959 60.0003 32.8925 58.5347 33.907 57.4076C34.9216 56.1678 40.7834 54.8147 45.5181 53.8002C48.3361 53.4619 50.027 51.9968 51.0415 50.5313C48.787 48.2768 44.0525 48.3895 43.4888 48.3895C37.2886 48.5021 31.089 46.4729 31.089 46.4729C24.8888 44.5563 19.4779 48.7274 19.2527 48.9531L19.1401 49.0657C16.5473 51.7711 5.38676 55.9421 1.21638 57.4077C0.765393 57.4077 0.539629 57.7455 0.42702 58.1965C0.314402 58.5349 0.427019 58.9853 0.765393 59.3237L12.3764 70.1453C12.6017 70.3706 12.8274 70.4837 13.1653 70.4837C13.5037 70.4837 13.7289 70.3711 13.9541 70.1453C19.5907 64.1709 38.8675 65.6364 44.6162 66.2001C49.3508 66.6511 51.0416 63.9457 70.5433 54.0255C72.4599 52.8983 73.1361 50.5312 72.1215 48.6146L72.1216 48.6147Z" fill="#F54748"/>
</svg>
