<svg width="16" height="19" viewBox="0 0 16 19" fill="none" xmlns="http://www.w3.org/2000/svg">
<path d="M3.42931 19C4.05802 19 4.57242 18.525 4.57242 17.9444V15.8333H8.00173C8.63044 15.8333 9.14484 15.3583 9.14484 14.7778C9.14484 14.1972 8.63044 13.7222 8.00173 13.7222H4.57242V11.6111H9.71639C13.3972 11.6111 16.335 8.69778 15.9692 5.23556C15.6605 2.21667 12.7342 0 9.44205 0H3.42931C2.80061 0 2.28621 0.475 2.28621 1.05556V9.5H1.1431C0.514397 9.5 0 9.975 0 10.5556C0 11.1361 0.514397 11.6111 1.1431 11.6111H2.28621V13.7222H1.1431C0.514397 13.7222 0 14.1972 0 14.7778C0 15.3583 0.514397 15.8333 1.1431 15.8333H2.28621V17.9444C2.28621 18.525 2.80061 19 3.42931 19ZM9.71639 9.5H4.57242V2.11111H9.71639C11.9226 2.11111 13.7173 3.76833 13.7173 5.80556C13.7173 7.84278 11.9226 9.5 9.71639 9.5Z" fill="black"/>
</svg>
