<svg width="35" height="35" viewBox="0 0 35 35" fill="none" xmlns="http://www.w3.org/2000/svg">
<rect x="0.75" y="0.75" width="33.5" height="33.5" rx="1.25" fill="white" stroke="#F54748" stroke-width="1.5"/>
<path d="M19.8224 24.6535V24.589H15.7587V24.6535L15.7594 24.6854C15.7594 25.0425 15.6173 25.385 15.3644 25.6375C15.1115 25.89 14.7684 26.0319 14.4108 26.0319C14.0531 26.0319 13.7101 25.89 13.4571 25.6375C13.2042 25.385 13.0621 25.0425 13.0621 24.6854L13.0628 24.6521V24.589H12.5996C12.4021 24.589 12.2105 24.5216 12.0567 24.3979C11.9028 24.2742 11.796 24.1017 11.7539 23.909L11.7532 23.9034L9.0453 11.1017L6.73183 10.717C6.51149 10.6726 6.31709 10.5444 6.18968 10.3595C6.06228 10.1746 6.01185 9.94745 6.04906 9.72611C6.08627 9.50477 6.2082 9.30654 6.38908 9.1733C6.56997 9.04006 6.79565 8.98224 7.01844 9.01207L7.01418 9.01136L9.90939 9.49303C10.262 9.55323 10.5387 9.81957 10.6124 10.161L10.6132 10.1667L11.1041 12.4787L19.5499 13.1813C19.4978 13.4583 19.4712 13.7395 19.4705 14.0214V14.0242C19.4705 14.309 19.4953 14.5881 19.5435 14.8594L19.5393 14.831C19.3069 14.9042 19.1096 15.0602 18.9851 15.2694C18.8607 15.4786 18.8178 15.7263 18.8646 15.9651L18.8639 15.9587L19.374 19.6349C19.4052 19.8708 19.513 20.0777 19.6705 20.2335C19.8138 20.3759 20.0104 20.4651 20.2281 20.4672H20.2289C20.2771 20.4672 20.3246 20.4623 20.37 20.4538L20.3651 20.4545C20.607 20.3914 20.8158 20.2388 20.9492 20.0277C21.0826 19.8166 21.1307 19.5628 21.0837 19.3176L21.0844 19.324L20.8063 17.3251C21.2477 17.7836 21.7774 18.1482 22.3636 18.397C22.9498 18.6459 23.5804 18.7737 24.2173 18.7729C24.2478 18.7729 24.2783 18.7729 24.3081 18.7687L24.3741 18.7651L23.8995 21.529C23.8881 21.596 23.8534 21.6569 23.8015 21.7008C23.7496 21.7447 23.6838 21.7689 23.6157 21.7692H13.0699L13.3019 22.8649H23.3454C23.5689 22.8738 23.7803 22.9686 23.9354 23.1296C24.0904 23.2905 24.1771 23.5051 24.1773 23.7284C24.1775 23.9518 24.0911 24.1665 23.9363 24.3277C23.7816 24.4889 23.5703 24.5841 23.3468 24.5933H22.5196V24.6577C22.5196 25.0149 22.3775 25.3574 22.1246 25.6099C21.8717 25.8624 21.5287 26.0043 21.171 26.0043C20.8133 26.0043 20.4703 25.8624 20.2174 25.6099C19.9644 25.3574 19.8224 25.0149 19.8224 24.6577V24.6535ZM20.7858 24.6535C20.7859 24.7064 20.7971 24.7586 20.8185 24.807C20.8399 24.8553 20.8712 24.8987 20.9103 24.9343C20.9493 24.97 20.9954 24.9971 21.0456 25.0141C21.0957 25.031 21.1489 25.0374 21.2016 25.0328C21.2544 25.0281 21.3056 25.0126 21.352 24.9872C21.3984 24.9618 21.4391 24.927 21.4713 24.8851C21.5036 24.8432 21.5268 24.795 21.5394 24.7437C21.5521 24.6924 21.5539 24.639 21.5449 24.5869V24.589H20.7929C20.7891 24.6103 20.7872 24.6319 20.7872 24.6535H20.7858ZM14.0263 24.6535C14.0264 24.7064 14.0375 24.7586 14.059 24.807C14.0804 24.8553 14.1117 24.8987 14.1507 24.9343C14.1898 24.97 14.2359 24.9971 14.2861 25.0141C14.3362 25.031 14.3894 25.0374 14.4421 25.0328C14.4948 25.0281 14.5461 25.0126 14.5925 24.9872C14.6389 24.9618 14.6795 24.927 14.7118 24.8851C14.7441 24.8432 14.7673 24.795 14.7799 24.7437C14.7926 24.6924 14.7944 24.639 14.7854 24.5869V24.589H14.0326C14.0291 24.6098 14.0274 24.6309 14.0277 24.6521V24.6535H14.0263ZM16.7696 14.8254C16.5277 14.8883 16.3188 15.0409 16.1853 15.252C16.0518 15.4631 16.0038 15.717 16.051 15.9622L16.0503 15.9559L16.5604 19.6321C16.5916 19.868 16.6994 20.0748 16.8569 20.2307C17.0002 20.373 17.1967 20.4623 17.4145 20.4644H17.4152C17.4635 20.4644 17.511 20.4594 17.5564 20.4509L17.5514 20.4517C17.7933 20.3885 18.0021 20.236 18.1356 20.0249C18.269 19.8138 18.3171 19.5599 18.2701 19.3148L18.2708 19.3212L17.7607 15.6449C17.7313 15.418 17.627 15.2074 17.4642 15.0464C17.316 14.8986 17.1159 14.8145 16.9066 14.8119H16.9059C16.8569 14.8119 16.8094 14.8169 16.7633 14.8261L16.7682 14.8254H16.7696ZM13.956 14.8254C13.7132 14.888 13.5036 15.0409 13.3699 15.2527C13.2362 15.4645 13.1885 15.7193 13.2367 15.9651L13.2359 15.9587L13.746 19.6349C13.7772 19.8708 13.8851 20.0777 14.0426 20.2335C14.1859 20.3759 14.3824 20.4651 14.6002 20.4672H14.6009C14.6491 20.4672 14.6967 20.4623 14.7421 20.4538L14.7371 20.4545C14.9792 20.3917 15.1883 20.2392 15.3219 20.028C15.4555 19.8169 15.5036 19.5629 15.4565 19.3176L15.4572 19.324L14.9464 15.6456C14.917 15.4187 14.8126 15.2081 14.6498 15.0471C14.5019 14.8991 14.3017 14.8149 14.0922 14.8126H14.0915C14.0433 14.8126 13.9965 14.8176 13.9511 14.8261L13.956 14.8254ZM20.1913 14.0264C20.1914 12.9593 20.6162 11.936 21.372 11.1816C21.7462 10.8081 22.1905 10.5118 22.6795 10.3097C23.1684 10.1076 23.6924 10.0036 24.2216 10.0037C24.7507 10.0038 25.2747 10.108 25.7636 10.3103C26.2524 10.5125 26.6966 10.809 27.0707 11.1826C27.4448 11.5563 27.7416 11.9999 27.944 12.4881C28.1464 12.9762 28.2505 13.4994 28.2505 14.0278C28.2502 15.095 27.8253 16.1184 27.0693 16.8729C26.3132 17.6273 25.288 18.051 24.2191 18.0508C23.1502 18.0505 22.1252 17.6262 21.3695 16.8714C20.6139 16.1165 20.1896 15.0929 20.1898 14.0257L20.1913 14.0264ZM21.3455 14.0264C21.3455 14.4034 21.4199 14.7767 21.5644 15.125C21.7089 15.4733 21.9207 15.7898 22.1877 16.0564C22.4547 16.323 22.7717 16.5344 23.1205 16.6787C23.4694 16.823 23.8433 16.8972 24.2209 16.8972C24.5985 16.8972 24.9724 16.823 25.3212 16.6787C25.6701 16.5344 25.987 16.323 26.254 16.0564C26.521 15.7898 26.7328 15.4733 26.8773 15.125C27.0218 14.7767 27.0962 14.4034 27.0962 14.0264C27.0963 13.2648 26.7934 12.5343 26.2541 11.9957C25.7148 11.4571 24.9833 11.1545 24.2205 11.1544C23.4577 11.1543 22.7262 11.4568 22.1867 11.9952C21.6473 12.5337 21.3442 13.2641 21.3441 14.0257L21.3455 14.0264ZM23.6441 15.1746V14.6022H23.0709C22.9177 14.6022 22.7708 14.5415 22.6625 14.4334C22.5542 14.3252 22.4934 14.1786 22.4934 14.0257C22.4934 13.8727 22.5542 13.7261 22.6625 13.6179C22.7708 13.5098 22.9177 13.4491 23.0709 13.4491H23.6441V12.8767C23.6441 12.7238 23.7049 12.5772 23.8132 12.469C23.9215 12.3609 24.0684 12.3002 24.2216 12.3002C24.3747 12.3002 24.5216 12.3609 24.6299 12.469C24.7382 12.5772 24.799 12.7238 24.799 12.8767V13.4491H25.3723C25.5254 13.4491 25.6723 13.5098 25.7806 13.6179C25.8889 13.7261 25.9498 13.8727 25.9498 14.0257C25.9498 14.1786 25.8889 14.3252 25.7806 14.4334C25.6723 14.5415 25.5254 14.6022 25.3723 14.6022H24.799V15.1739C24.799 15.3268 24.7382 15.4734 24.6299 15.5816C24.5216 15.6897 24.3747 15.7504 24.2216 15.7504C24.0684 15.7504 23.9215 15.6897 23.8132 15.5816C23.7049 15.4734 23.6441 15.3268 23.6441 15.1739V15.1746Z" fill="#F54748"/>
</svg>
