<svg width="16" height="21" viewBox="0 0 16 21" fill="none" xmlns="http://www.w3.org/2000/svg">
<path d="M15.3852 11.3562L1.84351 20.7313C1.68724 20.8394 1.50436 20.9027 1.31467 20.9144C1.12499 20.926 0.935734 20.8855 0.767397 20.7974C0.59906 20.7092 0.458058 20.5766 0.359655 20.414C0.261253 20.2514 0.209202 20.065 0.209138 19.875V1.125C0.209012 0.934871 0.260924 0.748334 0.35925 0.585605C0.457577 0.422875 0.598565 0.290161 0.766936 0.201844C0.935308 0.113527 1.12464 0.0729758 1.31441 0.0845858C1.50419 0.0961959 1.68716 0.159524 1.84351 0.267707L15.3852 9.64271C15.5231 9.73899 15.6358 9.86716 15.7136 10.0163C15.7914 10.1655 15.832 10.3312 15.832 10.4995C15.832 10.6677 15.7914 10.8335 15.7136 10.9826C15.6358 11.1318 15.5231 11.26 15.3852 11.3562Z" fill="#F54748"/>
</svg>
